<svg width="240px" height="42px" viewBox="0 0 240 42" version="1.1" xmlns="http://www.w3.org/2000/svg" xmlns:xlink="http://www.w3.org/1999/xlink">
    <g stroke="none" stroke-width="1" fill="none" fill-rule="evenodd">
        <g transform="translate(-21.000000, -10.000000)">
            <g id="brand-logo" transform="translate(21.000000, 10.000000)">
                <g id="brand-name">
                    <path d="M56.8766173,36.7821984 L56.0324598,40.7030803 L44.7562394,40.7030803 C40.0116094,40.7030803 38.0523024,38.7930961 38.8760504,34.9731276 L40.4742236,27.4375055 C41.2786961,23.617537 44.0526803,21.7075528 48.7961764,21.7075528 L60.0718299,21.7075528 L59.2582866,25.6261669 L47.9820661,25.6261669 C45.7512,25.6261669 44.5045228,26.2305134 44.2431685,27.4375055 L42.6449953,34.9731276 C42.3842079,36.1801197 43.3689638,36.7821984 45.5998299,36.7821984 L56.8766173,36.7821984 Z" id="Fill-1" fill="#00263A"></path>
                    <path d="M81.3093921,40.7025134 L77.5404472,40.7025134 L80.3750929,27.4369386 C80.6358803,26.2305134 79.6505575,25.6267339 77.4196913,25.6267339 L65.7216756,25.6267339 L62.4952819,40.7025134 L58.726337,40.7025134 L64.3944945,14.169663 L68.1634394,14.169663 L66.534652,21.7081197 L78.2338016,21.7081197 C82.9767307,21.7081197 84.9473764,23.6169701 84.1434709,27.4369386 L81.3093921,40.7025134 Z" id="Fill-3" fill="#00263A"></path>
                    <path d="M88.216063,21.7078929 L91.9850079,21.7078929 L87.9450709,40.7022866 L84.176126,40.7022866 L88.216063,21.7078929 Z M89.4247559,15.3690583 L93.223748,15.3690583 L92.4277795,19.0546646 L88.6293543,19.0546646 L89.4247559,15.3690583 Z" id="Fill-5" fill="#00263A"></path>
                    <path d="M95.1734173,40.7025134 L91.4050394,40.7025134 L94.2385512,27.4369386 C95.0435906,23.6169701 97.8164409,21.7081197 102.560504,21.7081197 L105.484724,21.7081197 L104.671181,25.6267339 L101.746961,25.6267339 C99.5149606,25.6267339 98.2688504,26.2305134 98.008063,27.4369386 L95.1734173,40.7025134 Z" id="Fill-7" fill="#00263A"></path>
                    <path d="M105.668806,27.4367118 C106.472712,23.6173102 109.246696,21.7078929 113.990192,21.7078929 L122.341625,21.7078929 C127.084554,21.7078929 129.0552,23.6173102 128.251861,27.4367118 L126.622507,35.0335622 C125.819735,38.8132787 123.044617,40.7022866 118.301688,40.7022866 L109.950255,40.7022866 C105.206192,40.7022866 103.246885,38.7928693 104.071767,34.9734677 L105.668806,27.4367118 Z M119.145846,36.7819717 C121.377279,36.7819717 122.612617,36.2003024 122.854696,35.0335622 L124.48235,27.4367118 C124.743704,26.2302866 123.758381,25.6265071 121.528082,25.6265071 L113.176649,25.6265071 C110.944649,25.6265071 109.698539,26.2302866 109.437751,27.4367118 L107.839578,34.9734677 C107.578791,36.179326 108.564113,36.7819717 110.79498,36.7819717 L119.145846,36.7819717 Z" id="Fill-9" fill="#00263A"></path>
                    <polygon fill="#407EC9" points="131.730369 21.7078929 133.809865 21.7078929 135.438652 14.1700031 138.875943 14.1700031 137.247156 21.7078929 141.738369 21.7078929 140.925959 25.6265071 136.433046 25.6265071 133.207786 40.7022866 129.769928 40.7022866 132.995754 25.6265071 130.915691 25.6265071"></polygon>
                    <path d="M142.153814,27.4367118 C142.95772,23.6173102 145.731137,21.7078929 150.475767,21.7078929 L158.826633,21.7078929 C163.569562,21.7078929 165.540208,23.6173102 164.736302,27.4367118 L163.108649,35.0335622 C162.303609,38.8132787 159.529625,40.7022866 154.786696,40.7022866 L146.434129,40.7022866 C141.6912,40.7022866 139.731893,38.7928693 140.556208,34.9734677 L142.153814,27.4367118 Z M155.630854,36.7819717 C157.862287,36.7819717 159.097625,36.2003024 159.339704,35.0335622 L160.967357,27.4367118 C161.228145,26.2302866 160.243389,25.6265071 158.013657,25.6265071 L149.661657,25.6265071 C147.430224,25.6265071 146.183546,26.2302866 145.922759,27.4367118 L144.324586,34.9734677 C144.063798,36.179326 145.04742,36.7819717 147.27942,36.7819717 L155.630854,36.7819717 Z" id="Fill-13" fill="#407EC9"></path>
                    <path d="M180.417335,36.7821984 C182.648202,36.7821984 183.884674,36.1999622 184.125619,35.0343559 L186.960831,21.7075528 L190.728076,21.7075528 L187.894564,35.0343559 C187.090658,38.8129386 184.317241,40.7030803 179.573178,40.7030803 L171.222312,40.7030803 C166.478816,40.7030803 164.518375,38.7930961 165.342123,34.9731276 L168.146154,21.7075528 L171.915099,21.7075528 L169.111635,34.9731276 C168.849713,36.1801197 169.835603,36.7821984 172.065335,36.7821984 L180.417335,36.7821984 Z" id="Fill-15" fill="#407EC9"></path>
                    <path d="M208.780403,36.7821984 L207.93738,40.7030803 L196.660592,40.7030803 C191.917663,40.7030803 189.956655,38.7930961 190.781537,34.9731276 L192.380277,27.4375055 C193.184183,23.617537 195.957033,21.7075528 200.700529,21.7075528 L211.976183,21.7075528 L211.163206,25.6261669 L199.886419,25.6261669 C197.654986,25.6261669 196.408876,26.2305134 196.147521,27.4375055 L194.550482,34.9731276 C194.288561,36.1801197 195.273883,36.7821984 197.505317,36.7821984 L208.780403,36.7821984 Z" id="Fill-17" fill="#407EC9"></path>
                    <path d="M233.213461,40.7025134 L229.444517,40.7025134 L232.279729,27.4369386 C232.540517,26.2305134 231.556328,25.6267339 229.324894,25.6267339 L217.625745,25.6267339 L214.399918,40.7025134 L210.630973,40.7025134 L216.299698,14.169663 L220.068643,14.169663 L218.440422,21.7081197 L230.137871,21.7081197 C234.882501,21.7081197 236.85258,23.6169701 236.048107,27.4369386 L233.213461,40.7025134 Z" id="Fill-19" fill="#407EC9"></path>
                    <path d="M236.375565,37.4194268 C236.481014,37.409222 236.568321,37.3973165 236.6664,37.3876787 C236.765046,37.3803087 236.867093,37.3791748 236.977644,37.3791748 C237.116542,37.3791748 237.240699,37.3973165 237.355786,37.4194268 C237.471439,37.4466394 237.567817,37.4851906 237.65229,37.5401827 C237.736195,37.5923402 237.799691,37.6632063 237.847313,37.7505134 C237.896069,37.841789 237.915912,37.945537 237.915912,38.0634583 C237.915912,38.2352378 237.87566,38.3752693 237.792321,38.4784504 C237.707282,38.5884346 237.616573,38.6649701 237.509991,38.7120252 L238.123408,39.625915 C238.064447,39.6361197 238.01966,39.641789 237.970904,39.6429228 C237.932353,39.6480252 237.887565,39.6480252 237.843912,39.6480252 C237.765109,39.6480252 237.693109,39.6361197 237.623943,39.625915 L236.964038,38.6026079 L237.079124,38.5561197 C237.170967,38.5062299 237.254872,38.4512378 237.341613,38.3820724 C237.420416,38.3112063 237.462369,38.2221984 237.462369,38.1065449 C237.462369,37.9976945 237.420416,37.913789 237.346715,37.8485921 C237.263376,37.7907654 237.15566,37.7590173 237.026967,37.7590173 C236.998054,37.7590173 236.964038,37.761285 236.936258,37.761285 C236.896006,37.7652535 236.855187,37.7669543 236.816069,37.777726 L236.816069,39.6361197 C236.757109,39.6480252 236.68851,39.6480252 236.603471,39.6480252 C236.524101,39.6480252 236.446431,39.6480252 236.375565,39.6361197 L236.375565,37.4194268 Z M237.084794,40.3289071 C237.355786,40.3289071 237.590494,40.2829858 237.807061,40.1883087 C238.014557,40.0987339 238.197676,39.9734425 238.340542,39.8158362 C238.48851,39.6621984 238.605298,39.473411 238.686369,39.2602457 C238.761203,39.0453795 238.79692,38.8118047 238.79692,38.5651906 C238.79692,38.3174425 238.761203,38.0906709 238.686369,37.8729701 C238.605298,37.6569701 238.48851,37.4710173 238.340542,37.3151118 C238.197676,37.1586394 238.014557,37.0344819 237.807061,36.9420724 C237.590494,36.8490961 237.355786,36.8082772 237.084794,36.8082772 C236.824006,36.8082772 236.581361,36.8490961 236.368762,36.9420724 C236.15503,37.0344819 235.97588,37.1586394 235.831313,37.3151118 C235.686746,37.4710173 235.572794,37.6569701 235.502494,37.8729701 C235.417455,38.0906709 235.380038,38.3174425 235.380038,38.5651906 C235.380038,38.8118047 235.417455,39.0453795 235.502494,39.2602457 C235.572794,39.473411 235.686746,39.6621984 235.831313,39.8158362 C235.97588,39.9734425 236.15503,40.0987339 236.368762,40.1883087 C236.581361,40.2829858 236.824006,40.3289071 237.084794,40.3289071 L237.084794,40.3289071 Z M237.084794,40.7030803 C236.767313,40.7030803 236.476479,40.649222 236.213991,40.5409386 C235.950369,40.4292535 235.725865,40.2829858 235.541613,40.0913638 C235.357928,39.9025764 235.207691,39.6792063 235.106211,39.4144504 C235.003597,39.1547969 234.951439,38.8718992 234.951439,38.5651906 C234.951439,38.2624504 235.003597,37.9784189 235.106211,37.7176315 C235.207691,37.4523087 235.357928,37.2266709 235.541613,37.0356157 C235.725865,36.8468283 235.950369,36.6988598 236.213991,36.5871748 C236.476479,36.4783244 236.767313,36.4244661 237.084794,36.4244661 C237.404542,36.4244661 237.693109,36.4783244 237.95503,36.5860409 C238.218652,36.689789 238.443723,36.8400252 238.628542,37.0344819 C238.817329,37.2266709 238.960195,37.4523087 239.061676,37.7091276 C239.168825,37.9755843 239.220983,38.2556472 239.220983,38.5651906 C239.220983,38.8718992 239.168825,39.1547969 239.061676,39.4144504 C238.960195,39.6792063 238.817329,39.9025764 238.628542,40.0913638 C238.443723,40.2829858 238.218652,40.4292535 237.95503,40.5409386 C237.693109,40.649222 237.404542,40.7030803 237.084794,40.7030803 L237.084794,40.7030803 Z" id="Fill-21" fill="#407EC9"></path>    
                </g>
            <g id="brand-mark">
                <path d="M24.9209764,15.6648819 C24.6732283,15.6648819 24.3891969,15.5231496 24.0700157,15.239685 C23.7871181,14.9210709 23.6453858,14.6370394 23.6453858,14.3887244 C23.6453858,13.752063 23.8755591,13.096126 24.3359055,12.4226142 C24.7968189,11.7496693 25.3274646,11.4123465 25.9306772,11.4123465 C26.2492913,11.4123465 26.4091654,11.5540787 26.4091654,11.8381102 C26.4091654,12.511622 26.3031496,13.2378583 26.0905512,14.0179528 C25.7708031,15.1160945 25.3813228,15.6648819 24.9209764,15.6648819 M27.099685,9.3407874 C27.028252,9.41108661 26.8695118,9.71099213 26.6211969,10.2444724 C26.4091654,10.7388346 26.1789921,10.9877165 25.9306772,10.9877165 C25.5406299,10.9877165 25.3461732,10.5976693 25.3461732,9.81814173 L25.2401575,7.37411024 C25.2401575,6.59401575 25.3988976,5.81448819 25.7180787,5.03496063 C26.0724094,4.21971654 26.5860472,3.81266142 27.2589921,3.81266142 C28.2868346,3.81266142 28.8016063,4.43231496 28.8016063,5.67275591 C28.8016063,7.19609449 28.2335433,8.41896063 27.099685,9.3407874" id="Fill-23" fill="#8A8D8F"></path> 
                <path d="M17.272989,32.3253417 C17.272989,31.9352945 17.4334299,31.3859402 17.7520441,30.6789795 C18.0706583,29.9686173 18.2305323,29.3835465 18.2305323,28.9237669 C18.2305323,27.3652787 17.3982803,26.5846173 15.7320756,26.5846173 C15.1662803,26.5846173 14.6696504,26.939515 14.2438866,27.6481764 C13.8544063,28.3216882 13.6593827,28.9946331 13.6593827,29.6681449 C13.6593827,29.915326 13.712674,30.2866646 13.8186898,30.7844283 C13.960989,31.2447748 14.1384378,31.474948 14.3516031,31.474948 C14.6333669,31.474948 14.8459654,31.8644283 14.9882646,32.6439559 C15.1662803,33.4234835 15.5024693,33.8481134 15.9979654,33.9195465 C16.2111307,34.2392945 16.4583118,34.5936252 16.7423433,34.9825386 C17.0609575,35.3374362 17.3614299,35.5143181 17.6460283,35.5143181 C18.0360756,35.5143181 18.2305323,35.3187276 18.2305323,34.9298142 C18.2305323,34.5749165 18.1420913,34.2392945 17.9640756,33.9195465 C17.5037291,33.0697197 17.272989,32.5385071 17.272989,32.3253417 M24.5019024,35.6203339 C24.5019024,35.6917669 24.6617764,36.1521134 24.9803906,37.0025071 C25.1578394,37.4985701 25.2462803,37.8886173 25.2462803,38.1720819 C25.2462803,39.0927748 24.6079181,39.8728693 23.3323276,40.5106646 C22.2704693,41.0413102 21.2256189,41.3072 20.1977764,41.3072 C20.0554772,41.3072 19.4346898,41.2006173 18.3359811,40.9880189 C17.2384063,40.7759874 16.3880126,40.6694047 15.7853669,40.6694047 C15.0415559,40.6694047 14.2438866,40.6342551 13.3940598,40.562822 C12.5430992,40.5288063 12.0657449,40.5106646 11.9585953,40.5106646 C11.3916661,40.5106646 10.8417449,40.1920504 10.3110992,39.5542551 C9.92048504,39.0927748 9.58486299,38.5434205 9.3008315,37.9056252 C8.62845354,36.4877354 7.97138268,35.0539717 7.33472126,33.6003654 C6.48376063,31.5820976 6.05913071,30.0394835 6.05913071,28.9776252 C6.05913071,27.4185701 6.35960315,26.0902551 6.96224882,24.9898457 C7.60004409,23.8928378 8.46857953,23.0237354 9.56728819,22.3859402 C9.77988661,22.2793575 9.99191811,22.2272 10.2045165,22.2272 C10.3110992,22.2272 10.5418394,22.2623496 10.8961701,22.3337827 C11.2499339,22.4040819 11.5509732,22.4392315 11.7998551,22.4392315 C12.0476031,22.4392315 12.3305008,22.3859402 12.6502488,22.2793575 C13.0034457,22.1739087 13.4637921,21.9080189 14.0307213,21.4816882 C14.6333669,21.0570583 15.2717291,20.7911685 15.9452409,20.6851528 C16.3335874,20.6137197 16.8126425,20.6500031 17.3795717,20.7911685 C17.9459339,20.9340346 18.5672882,21.0927748 19.2402331,21.2702236 C19.4533984,21.2702236 19.8071622,21.1642079 20.3032252,20.9516094 C20.7992882,20.7384441 21.2953512,20.6318614 21.7914142,20.6318614 C22.0743118,20.6318614 22.392926,20.6681449 22.7478236,20.7384441 C23.1384378,20.8087433 23.5092094,21.6415622 23.864674,23.2369008 C24.2184378,24.795389 24.3958866,26.0358299 24.3958866,26.9565228 C24.3958866,27.4185701 24.2893039,27.9140661 24.0767055,28.4441449 C23.8998236,28.9419087 23.8113827,29.2962394 23.8113827,29.5082709 C23.8113827,29.7214362 23.8283906,29.9516094 23.864674,30.1993575 C23.9344063,30.4471055 24.1657134,30.819011 24.5563276,31.3162079 C24.9803906,31.7765543 25.2111307,32.2023181 25.2462803,32.5917984 C25.6357606,32.9812787 25.8307843,33.3701921 25.8307843,33.7602394 C25.8307843,34.0079874 25.600611,34.3266016 25.1408315,34.7177827 C24.7145008,35.0715465 24.5019024,35.3725858 24.5019024,35.6203339 M6.75021732,20.5252787 C6.46675276,20.5252787 5.97012283,19.9764913 5.26146142,18.8783496 C4.58794961,17.7450583 4.25232756,17.0176882 4.25232756,16.6985071 L4.41106772,16.5930583 C4.97856378,16.5930583 5.65150866,17.0176882 6.43046929,17.8692157 C7.21113071,18.7190425 7.60004409,19.4277039 7.60004409,19.9946331 C7.60004409,20.3495307 7.31657953,20.5252787 6.75021732,20.5252787 M3.77327244,15.9025386 C3.09976063,15.9025386 2.42738268,15.4937827 1.75330394,14.6791055 C1.11550866,13.8298457 0.796894488,13.0497512 0.796894488,12.3405228 C0.796894488,11.8098772 1.08092598,11.5445543 1.64785512,11.5445543 C2.39166614,11.5445543 2.97617008,11.8801764 3.40136693,12.5531213 C3.86228031,13.2266331 4.09245354,13.971578 4.09245354,14.7856882 C4.09245354,14.9988535 4.05730394,15.2466016 3.98587087,15.5300661 C3.95072126,15.7783811 3.87985512,15.9025386 3.77327244,15.9025386 M12.1711937,16.5930583 C11.6751307,16.5930583 11.1433512,16.3447433 10.576989,15.8486803 C10.0100598,15.3180346 9.72602835,14.8208378 9.72602835,14.3604913 C9.72602835,14.1127433 9.79689449,13.7754205 9.93862677,13.3507906 C10.080926,12.9250268 10.1517921,12.5701291 10.1517921,12.2877984 C10.1517921,11.826885 10.1160756,11.4901291 10.0446425,11.2769638 C9.97377638,11.0297827 9.77988661,10.5688693 9.45957165,9.89592441 C9.21239055,9.89592441 8.87506772,9.15211339 8.4504378,7.66392441 C8.02580787,6.17573543 7.81264252,5.16546772 7.81264252,4.63425512 C7.81264252,4.03104252 7.86593386,3.6064126 7.97138268,3.35809764 C8.11368189,3.11034961 8.34385512,2.98732598 8.66303622,2.98732598 C9.72602835,3.27022362 10.4709732,3.87230236 10.8961701,4.79412913 C11.1796346,5.39620787 11.3202331,6.05214488 11.3202331,6.7608063 C11.3202331,6.93712126 11.2499339,7.25573543 11.1082016,7.71608189 C11.0016189,8.1424126 10.9483276,8.46102677 10.9483276,8.67419213 L10.9483276,11.2248063 C10.9840441,12.1103496 11.072485,12.6948535 11.2147843,12.9783181 C11.3565165,13.2623496 11.6751307,13.6166803 12.1711937,14.0413102 C12.4540913,14.2901921 12.5963906,14.8389795 12.5963906,15.6899402 C12.5963906,16.291452 12.4540913,16.5930583 12.1711937,16.5930583 M17.5400126,8.24786142 C17.5400126,8.77964094 17.6103118,9.50587717 17.7520441,10.4277039 C17.928926,11.3483969 18.0173669,12.0043339 18.0173669,12.3932472 C18.0173669,12.8893102 17.9119181,13.3507906 17.6987528,13.7754205 C17.4861543,14.2017512 17.1675402,14.4149165 16.7423433,14.4149165 C16.3880126,14.4149165 16.1226898,14.2187591 15.9452409,13.8298457 C15.8035087,13.4040819 15.7320756,12.9964598 15.7320756,12.6064126 C15.7320756,12.4295307 15.8205165,12.1812157 15.9979654,11.8631685 C16.2111307,11.5445543 16.3171465,11.2951055 16.3171465,11.1182236 C16.3171465,10.1975307 16.1748472,9.15211339 15.8919496,7.98310551 C15.2184378,5.14789291 14.8816819,3.37623937 14.8816819,2.66701102 C14.8816819,2.13579843 14.9882646,1.6391685 15.2002961,1.17938898 C15.4134614,0.71904252 15.7677921,0.488302362 16.2638551,0.488302362 C16.8665008,0.488302362 17.3614299,0.789908661 17.7520441,1.39085354 C18.1420913,1.99406614 18.3359811,2.61428661 18.3359811,3.25151496 C18.3359811,3.74814488 18.1590992,4.7759874 17.8053354,6.33504252 C17.6273197,7.11513701 17.5400126,7.75179843 17.5400126,8.24786142 M32.3674772,26.4258772 C31.9428472,26.4258772 31.5006425,25.9825386 31.0397291,25.0975622 C30.6150992,24.210885 30.4025008,23.5203654 30.4025008,23.0237354 C30.4025008,22.1739087 30.9155717,21.2877984 31.9428472,20.3665386 C33.0064063,19.4089953 33.9803906,18.9305071 34.8665008,18.9305071 C35.0439496,18.9305071 35.256548,19.0903811 35.5042961,19.4089953 C35.752611,19.6935937 35.8762016,19.9237669 35.8762016,20.1006488 C35.8762016,20.7741606 35.4339969,21.9964598 34.5478866,23.7675465 C33.6617764,25.5397669 32.9344063,26.4258772 32.3674772,26.4258772" id="Fill-25" fill="#407EC9"></path>    
            </g>
            </g>
        </g>
    </g>
</svg>