<svg class="h-14" enable-background="new 0 0 343 145" version="1.1" viewBox="0 0 343 145" xml:space="preserve" xmlns="http://www.w3.org/2000/svg"><style type="text/css">.st0{fill:url(#a);}</style> <path d="M164.2,62.8h-4.8L151.8,39v31.3h-7.9V19.1h8l9.9,29.7l9.9-29.7h8.3v51.2h-8.2V39L164.2,62.8z"/> <path d="m202.7 58.9h-9.4l-1.8 11.4h-8.2l9.5-51.2h10.7l9.6 51.2h-8.6l-1.8-11.4zm-1.1-7.1l-3.6-22.7-3.6 22.7h7.2z"/> <path d="m235.5 70.3l-6.5-20.4h-4.2v20.4h-8.5v-51.2h13.2c7.7 0 12.9 3.1 12.9 10.8v9.1c0 4.9-2 8-5.6 9.5l7.3 21.7h-8.6zm-10.7-27.7h4.5c2.8 0 4.7-1 4.7-4.7v-6.7c0-3.7-1.9-4.7-4.7-4.7h-4.5v16.1z"/> <path d="m267.1 70.3l-7-22.2-3.8 7.5v14.8h-8.5v-51.3h8.5v23l9.6-23h8.9l-9.8 19.2 10.7 31.9h-8.6z"/> <path d="M278.6,70.3V19.1h22.4v7.5h-14v14h11.7V48h-11.7v14.8h14.2v7.5H278.6z"/> <path d="m329.4 26.6h-8.6v43.7h-8.5v-43.7h-8.6v-7.5h25.6v7.5z"/>   <path d="m331.6 79.2h-1.9v-1.3h5.3v1.3h-1.9v5.5h-1.5v-5.5z"/> <path d="m336.3 77.9h1.6l1.1 3.1 0.4 1.2 0.4-1.2 1.1-3.1h1.6v6.8h-1.4v-2.5c0-0.7 0.1-1.7 0.2-2.3l-0.6 1.6-1.1 2.7h-0.6l-1-2.7-0.5-1.6c0.1 0.7 0.2 1.7 0.2 2.3v2.5h-1.4v-6.8z"/>   <path d="M161,116.3h-2.6l-9.7-27v34.5h-4.4V77.7h4.5l10.8,30.5l10.9-30.5h4.7v46.1h-4.6V89.2L161,116.3z"/> <path d="m202.6 114.5c0 6.7-3.7 9.7-10.7 9.7h-0.3c-7 0-10.7-3-10.7-9.7v-36.8h4.7v35.7c0 4.8 1.6 6.7 6.1 6.7s6.1-1.8 6.1-6.7v-35.7h4.7v36.8z"/> <path d="m224.2 93.7v-6.1c0-4.4-1.8-6.3-5.9-6.3-4.2 0-5.9 1.9-5.9 6.3v3.2c0 3.1 1.1 4 4.2 5.7l6.6 3.6c3.6 2 5.9 4.4 5.9 8.3v6.1c0 6.7-3.6 9.6-10.6 9.6h-0.1c-7 0-10.6-2.8-10.6-9.6v-7.5h4.7v6.6c0 4.3 1.8 6.5 6 6.5s6-2.1 6-6.5v-3.7c0-3.1-1.2-4.3-4.3-6.1l-6.5-3.6c-4-2.2-5.9-4.2-5.9-8.2v-5.5c0-6.5 4.2-9.5 10.5-9.5h0.1c6.3 0 10.5 3 10.5 9.5v7.1h-4.7z"/> <path d="m255.7 114.5c0 6.7-3.8 9.7-10.8 9.7h-0.1c-7 0-10.8-3-10.8-9.7v-27.6c0-6.5 3.8-9.7 10.8-9.7h0.1c7 0 10.8 3.3 10.8 9.7v8h-4.7v-6.9c0-4.7-1.8-6.7-6.1-6.7s-6.1 1.9-6.1 6.7v25.3c0 4.7 1.8 6.7 6.1 6.7s6.1-1.9 6.1-6.7v-8h4.7v9.2z"/> <path d="M278.9,123.8H261V77.7h4.7v41.8h13.1V123.8z"/> <path d="M283.1,123.8V77.7h18.6v4.3h-13.9v16.3h11.9v4.2h-11.9v17H302v4.3H283.1z"/> <path d="m322.6 93.7v-6.1c0-4.4-1.8-6.3-5.9-6.3-4.2 0-5.9 1.9-5.9 6.3v3.2c0 3.1 1.1 4 4.2 5.7l6.6 3.6c3.6 2 5.9 4.4 5.9 8.3v6.1c0 6.7-3.6 9.6-10.6 9.6h-0.1c-7 0-10.6-2.8-10.6-9.6v-7.5h4.7v6.6c0 4.3 1.8 6.5 6 6.5s6-2.1 6-6.5v-3.7c0-3.1-1.2-4.3-4.3-6.1l-6.5-3.6c-4-2.2-5.9-4.2-5.9-8.2v-5.5c0-6.5 4.2-9.5 10.5-9.5h0.1c6.3 0 10.5 3 10.5 9.5v7.1h-4.7z"/>  <linearGradient id="a" x1="63.855" x2="63.855" y1="144.67" y2=".2357" gradientUnits="userSpaceOnUse"> <stop stop-color="#8BC645" offset="0"/> <stop stop-color="#4AB966" offset="1"/> </linearGradient> <path class="st0" d="m123.6 33.5l-55.9-32.2c-2.4-1.4-5.3-1.4-7.7 0l-55.9 32.2c-2.4 1.4-3.9 3.9-3.9 6.7v64.5c0 2.8 1.5 5.3 3.9 6.7l55.9 32.2c2.4 1.4 5.3 1.4 7.7 0l55.8-32.2c2.4-1.4 3.9-3.9 3.9-6.7v-64.5c0-2.8-1.4-5.3-3.8-6.7zm-78 3.6l18.2 12 18.2-12v18.7l-9.6 7.4v-7.2l-8.6 6.3-8.6-6.3v7.1l-9.6-7.4v-18.6zm57.8 58.5l-17.6 10.9v-14.4l-22 15.8-22-15.8v14.4l-17.5-10.9v-47l39.5 30.4 39.5-30.4v47z"/></svg>